<?xml version="1.0" encoding="UTF-8" standalone="no"?><!DOCTYPE svg PUBLIC "-//W3C//DTD SVG 1.1//EN" "http://www.w3.org/Graphics/SVG/1.1/DTD/svg11.dtd"><svg width="100%" height="100%" viewBox="0 0 327 273" version="1.1" xmlns="http://www.w3.org/2000/svg" xmlns:xlink="http://www.w3.org/1999/xlink" xml:space="preserve" xmlns:serif="http://www.serif.com/" style="fill-rule:evenodd;clip-rule:evenodd;stroke-linecap:round;stroke-linejoin:round;stroke-miterlimit:1.5;"><g id="Cup-SideView" serif:id="Cup SideView"><path d="M296.611,265.711l-0,4.706c-0,0.314 -0.125,0.615 -0.347,0.836c-0.222,0.222 -0.523,0.347 -0.836,0.347c-14.896,-0 -165.686,-0 -179.184,-0c-0.256,-0 -0.502,-0.102 -0.683,-0.283c-0.181,-0.181 -0.282,-0.426 -0.282,-0.682c-0,-1.671 -0,-4.924 -0,-4.924l181.332,0Z" style="fill:none;stroke:#000;stroke-width:2.6px;"/><path d="M322.686,1.458c0.728,0 1.427,0.29 1.942,0.805c0.515,0.515 0.804,1.214 0.804,1.942c0,22.839 0,181.818 0,239.345c0,11.441 -9.275,20.716 -20.716,20.716l-195.158,0c-5.408,0 -10.594,-2.148 -14.418,-5.972c-3.824,-3.823 -5.972,-9.01 -5.972,-14.417c-0,-57.772 -0,-219.712 -0,-240.265c-0,-0.571 0.227,-1.119 0.631,-1.523c0.404,-0.404 0.952,-0.631 1.523,-0.631c22.058,0 206.588,0 231.364,0Z" style="fill:none;stroke:#000;stroke-width:2.92px;"/><path d="M67.594,57.853c2.862,-0.278 12.828,-1.621 17.831,4.681c2.103,2.649 3.532,6.565 3.565,10.879c0.104,13.5 0.178,31.983 0.178,46.242c-0,14.163 0.479,31.981 -0.589,45.284c-0.199,2.484 -1.059,4.72 -1.854,6.748c-3.015,7.683 -10.249,10.994 -18.276,10.053c-33.331,-3.905 -41.29,-30.624 -41.29,-57.569c0,-10.381 -2.073,-22.553 5.725,-39.583c7.305,-15.954 22.691,-25.57 34.71,-26.735Z" style="fill:none;stroke:#000;stroke-width:2.86px;"/><path d="M89.168,13.701c-0,0 -0.917,11.198 -8.753,14.991c-7.837,3.793 -41.005,2.124 -61.598,29.147c-20.594,27.023 -21.368,88.408 -10.263,109.291c11.105,20.883 18.548,25.725 34.022,33.932c11.593,6.148 20.127,6.163 29.786,6.705c9.659,0.542 15.57,7.405 16.806,11.559" style="fill:none;stroke:#000;stroke-width:2.86px;"/></g></svg>