<?xml version="1.0" encoding="UTF-8" standalone="no"?><!DOCTYPE svg PUBLIC "-//W3C//DTD SVG 1.1//EN" "http://www.w3.org/Graphics/SVG/1.1/DTD/svg11.dtd"><svg width="100%" height="100%" viewBox="0 0 234 321" version="1.1" xmlns="http://www.w3.org/2000/svg" xmlns:xlink="http://www.w3.org/1999/xlink" xml:space="preserve" xmlns:serif="http://www.serif.com/" style="fill-rule:evenodd;clip-rule:evenodd;stroke-linejoin:round;stroke-miterlimit:2;"><g id="Top-View" serif:id="Top View"><path d="M125.202,-0c2.412,0 4.724,0.958 6.429,2.663c1.705,1.705 2.662,4.017 2.662,6.428l0,81.444l-17.647,-0.906l-18.395,0.906l0,-81.699c0,-4.88 3.956,-8.836 8.836,-8.836l18.115,-0Zm0,3.076l-18.115,-0c-3.181,-0 -5.76,2.579 -5.76,5.76l0,78.468l15.322,-0.755l14.569,0.748l-0,-78.206c-0,-1.595 -0.634,-3.125 -1.762,-4.253c-1.128,-1.129 -2.658,-1.762 -4.254,-1.762Z"/><path d="M32.017,200.916l-2.821,-0.094c0.032,-0.988 0.082,-1.972 0.147,-2.951l2.817,0.188c-0.063,0.948 -0.111,1.901 -0.143,2.857Zm0.716,-8.548l-2.798,-0.377c0.132,-0.98 0.281,-1.954 0.445,-2.923l2.783,0.472c-0.159,0.938 -0.302,1.88 -0.43,2.828Zm1.578,-8.432l-2.745,-0.66c0.231,-0.96 0.478,-1.914 0.74,-2.862l2.721,0.753c-0.254,0.917 -0.493,1.84 -0.716,2.769Zm2.428,-8.226l-2.663,-0.937c0.328,-0.931 0.67,-1.855 1.028,-2.772l2.63,1.027c-0.346,0.887 -0.678,1.781 -0.995,2.682Zm3.255,-7.937l-2.554,-1.203c0.42,-0.892 0.855,-1.776 1.305,-2.652l2.511,1.289c-0.434,0.847 -0.855,1.703 -1.262,2.566Zm4.044,-7.564l-2.419,-1.456c0.509,-0.845 1.031,-1.68 1.567,-2.506l2.368,1.536c-0.518,0.799 -1.024,1.608 -1.516,2.426Zm4.789,-7.117l-2.26,-1.692c0.591,-0.789 1.194,-1.568 1.811,-2.336l2.201,1.767c-0.596,0.744 -1.18,1.497 -1.752,2.261Zm5.481,-6.599l-2.078,-1.911c0.666,-0.725 1.345,-1.439 2.036,-2.141l2.013,1.979c-0.669,0.68 -1.326,1.371 -1.971,2.073Zm6.116,-6.014l-1.876,-2.11c0.736,-0.654 1.483,-1.296 2.241,-1.926l1.804,2.172c-0.734,0.609 -1.457,1.231 -2.169,1.864Zm6.689,-5.37l-1.654,-2.287c0.798,-0.577 1.606,-1.141 2.424,-1.691l1.576,2.342c-0.791,0.533 -1.573,1.078 -2.346,1.636Zm7.197,-4.667l-1.414,-2.444c0.851,-0.493 1.712,-0.972 2.582,-1.437l1.331,2.489c-0.841,0.45 -1.675,0.914 -2.499,1.392Zm7.632,-3.916l-1.159,-2.574c0.897,-0.404 1.802,-0.794 2.715,-1.168l1.072,2.612c-0.884,0.362 -1.76,0.739 -2.628,1.13Zm7.991,-3.119l-0.891,-2.679c0.933,-0.311 1.874,-0.606 2.821,-0.885l0.799,2.707c-0.916,0.271 -1.826,0.556 -2.729,0.857Zm8.267,-2.289l-0.614,-2.755c0.96,-0.214 1.926,-0.412 2.897,-0.593l0.519,2.775c-0.94,0.175 -1.874,0.367 -2.802,0.573Zm8.457,-1.434l-0.331,-2.804c0.976,-0.115 1.956,-0.213 2.941,-0.296l0.236,2.814c-0.954,0.079 -1.902,0.175 -2.846,0.286Zm8.559,-0.572l-0.047,-2.823c0.491,-0.008 0.983,-0.012 1.477,-0.012c0.493,-0 0.985,0.004 1.477,0.012l-0.047,2.823c-0.476,-0.008 -0.953,-0.012 -1.43,-0.012c-0.478,-0 -0.955,0.004 -1.43,0.012Zm8.573,0.285l0.235,-2.813c0.985,0.083 1.965,0.181 2.941,0.296l-0.33,2.804c-0.944,-0.111 -1.893,-0.207 -2.846,-0.287Zm8.501,1.148l0.519,-2.775c0.971,0.181 1.936,0.379 2.896,0.593l-0.613,2.755c-0.929,-0.206 -1.863,-0.397 -2.802,-0.573Zm8.34,2.005l0.799,-2.707c0.947,0.279 1.887,0.574 2.821,0.885l-0.891,2.679c-0.903,-0.301 -1.813,-0.586 -2.729,-0.857Zm8.092,2.846l1.071,-2.612c0.913,0.374 1.818,0.764 2.716,1.168l-1.16,2.574c-0.868,-0.391 -1.744,-0.768 -2.627,-1.13Zm7.76,3.654l1.331,-2.489c0.87,0.465 1.731,0.944 2.583,1.437l-1.415,2.444c-0.824,-0.478 -1.657,-0.942 -2.499,-1.392Zm7.35,4.423l1.576,-2.342c0.818,0.55 1.626,1.114 2.424,1.691l-1.654,2.288c-0.772,-0.559 -1.554,-1.104 -2.346,-1.637Zm6.866,5.141l1.804,-2.171c0.758,0.629 1.505,1.272 2.241,1.926l-1.876,2.11c-0.712,-0.634 -1.435,-1.255 -2.169,-1.865Zm6.314,5.806l2.013,-1.979c0.691,0.702 1.37,1.416 2.037,2.141l-2.078,1.911c-0.646,-0.702 -1.303,-1.393 -1.972,-2.073Zm5.7,6.411l2.201,-1.767c0.617,0.768 1.221,1.547 1.811,2.336l-2.259,1.692c-0.572,-0.764 -1.157,-1.517 -1.753,-2.261Zm5.025,6.952l2.369,-1.536c0.535,0.826 1.058,1.661 1.566,2.506l-2.419,1.456c-0.492,-0.818 -0.997,-1.627 -1.516,-2.426Zm4.298,7.424l2.512,-1.289c0.449,0.876 0.884,1.76 1.304,2.653l-2.554,1.202c-0.406,-0.863 -0.827,-1.719 -1.262,-2.566Zm3.522,7.821l2.63,-1.027c0.358,0.917 0.701,1.841 1.028,2.772l-2.663,0.937c-0.317,-0.901 -0.649,-1.795 -0.995,-2.682Zm2.708,8.139l2.72,-0.753c0.263,0.948 0.51,1.902 0.741,2.862l-2.745,0.66c-0.224,-0.929 -0.463,-1.852 -0.716,-2.769Zm1.863,8.373l2.783,-0.472c0.165,0.969 0.313,1.943 0.445,2.923l-2.798,0.377c-0.127,-0.948 -0.271,-1.89 -0.43,-2.828Zm1.003,8.519l2.817,-0.188c0.066,0.979 0.115,1.963 0.148,2.951l-2.822,0.094c-0.032,-0.956 -0.079,-1.909 -0.143,-2.857Zm0.143,8.577l2.822,0.094c-0.033,0.988 -0.082,1.972 -0.148,2.951l-2.817,-0.188c0.064,-0.948 0.111,-1.901 0.143,-2.857Zm-0.716,8.548l2.798,0.377c-0.132,0.98 -0.28,1.954 -0.445,2.923l-2.783,-0.472c0.159,-0.938 0.303,-1.88 0.43,-2.828Zm-1.577,8.432l2.745,0.66c-0.231,0.96 -0.478,1.914 -0.741,2.862l-2.72,-0.753c0.253,-0.917 0.492,-1.84 0.716,-2.769Zm-2.429,8.226l2.663,0.937c-0.327,0.931 -0.67,1.855 -1.028,2.772l-2.63,-1.027c0.347,-0.887 0.678,-1.781 0.995,-2.682Zm-3.255,7.937l2.554,1.202c-0.42,0.893 -0.855,1.777 -1.304,2.653l-2.512,-1.289c0.435,-0.847 0.856,-1.703 1.262,-2.566Zm-4.044,7.564l2.419,1.456c-0.508,0.845 -1.031,1.68 -1.566,2.506l-2.369,-1.536c0.519,-0.799 1.024,-1.608 1.516,-2.426Zm-4.788,7.117l2.259,1.692c-0.59,0.789 -1.194,1.568 -1.811,2.336l-2.201,-1.767c0.596,-0.744 1.181,-1.497 1.753,-2.261Zm-5.481,6.599l2.078,1.911c-0.667,0.725 -1.346,1.439 -2.037,2.141l-2.012,-1.979c0.668,-0.68 1.325,-1.371 1.971,-2.073Zm-6.116,6.014l1.875,2.11c-0.736,0.654 -1.483,1.296 -2.241,1.926l-1.804,-2.172c0.734,-0.609 1.457,-1.231 2.17,-1.864Zm-6.69,5.369l1.654,2.288c-0.798,0.577 -1.606,1.141 -2.424,1.691l-1.576,-2.342c0.792,-0.533 1.574,-1.078 2.346,-1.637Zm-7.197,4.668l1.415,2.444c-0.852,0.493 -1.713,0.972 -2.583,1.437l-1.331,-2.489c0.842,-0.45 1.675,-0.914 2.499,-1.392Zm-7.632,3.916l1.16,2.574c-0.898,0.404 -1.803,0.794 -2.716,1.168l-1.071,-2.612c0.883,-0.362 1.759,-0.739 2.627,-1.13Zm-7.99,3.119l0.891,2.679c-0.934,0.311 -1.874,0.606 -2.821,0.885l-0.8,-2.707c0.917,-0.271 1.827,-0.556 2.73,-0.857Zm-8.267,2.289l0.613,2.755c-0.96,0.214 -1.925,0.412 -2.896,0.593l-0.52,-2.775c0.94,-0.176 1.874,-0.367 2.803,-0.573Zm-8.457,1.434l0.33,2.804c-0.976,0.115 -1.956,0.213 -2.941,0.296l-0.235,-2.814c0.953,-0.079 1.902,-0.175 2.846,-0.286Zm-8.559,0.572l0.047,2.823c-0.492,0.008 -0.984,0.012 -1.477,0.012c-0.494,0 -0.986,-0.004 -1.477,-0.012l0.047,-2.823c0.475,0.008 0.952,0.012 1.43,0.012c0.477,0 0.954,-0.004 1.43,-0.012Zm-8.573,-0.286l-0.236,2.814c-0.985,-0.083 -1.965,-0.181 -2.94,-0.296l0.33,-2.804c0.944,0.111 1.892,0.207 2.846,0.286Zm-8.501,-1.147l-0.519,2.775c-0.972,-0.182 -1.937,-0.379 -2.897,-0.593l0.613,-2.756c0.929,0.207 1.863,0.398 2.803,0.574Zm-8.34,-2.005l-0.8,2.707c-0.947,-0.279 -1.887,-0.574 -2.821,-0.885l0.891,-2.679c0.904,0.301 1.813,0.586 2.73,0.857Zm-8.092,-2.846l-1.072,2.612c-0.913,-0.374 -1.818,-0.764 -2.715,-1.168l1.159,-2.574c0.868,0.391 1.744,0.768 2.628,1.13Zm-7.761,-3.654l-1.331,2.489c-0.869,-0.465 -1.731,-0.944 -2.582,-1.437l1.414,-2.444c0.824,0.478 1.658,0.942 2.499,1.392Zm-7.35,-4.423l-1.576,2.342c-0.818,-0.55 -1.626,-1.114 -2.424,-1.691l1.654,-2.288c0.773,0.559 1.555,1.104 2.346,1.637Zm-6.866,-5.141l-1.804,2.171c-0.758,-0.629 -1.505,-1.272 -2.241,-1.926l1.876,-2.11c0.712,0.634 1.436,1.255 2.169,1.865Zm-6.314,-5.806l-2.013,1.979c-0.691,-0.702 -1.37,-1.416 -2.036,-2.141l2.078,-1.911c0.645,0.702 1.302,1.393 1.971,2.073Zm-5.699,-6.411l-2.202,1.767c-0.616,-0.768 -1.22,-1.547 -1.811,-2.336l2.26,-1.692c0.572,0.764 1.156,1.517 1.753,2.261Zm-5.026,-6.952l-2.368,1.536c-0.536,-0.826 -1.058,-1.661 -1.567,-2.506l2.419,-1.456c0.492,0.818 0.998,1.627 1.516,2.426Zm-4.298,-7.424l-2.511,1.289c-0.45,-0.876 -0.885,-1.76 -1.305,-2.653l2.554,-1.202c0.407,0.863 0.828,1.719 1.262,2.566Zm-3.522,-7.821l-2.63,1.027c-0.358,-0.917 -0.7,-1.841 -1.028,-2.772l2.663,-0.937c0.317,0.901 0.649,1.795 0.995,2.682Zm-2.707,-8.139l-2.721,0.753c-0.262,-0.948 -0.509,-1.902 -0.74,-2.862l2.745,-0.66c0.223,0.929 0.462,1.852 0.716,2.769Zm-1.864,-8.373l-2.783,0.472c-0.164,-0.969 -0.313,-1.943 -0.445,-2.923l2.798,-0.377c0.128,0.948 0.271,1.89 0.43,2.828Zm-1.003,-8.519l-2.817,0.188c-0.065,-0.979 -0.115,-1.963 -0.147,-2.951l2.821,-0.094c0.032,0.956 0.08,1.909 0.143,2.857Z"/><path d="M116.646,96.635c59.133,-0 107.141,48.008 107.141,107.141c-0,59.133 -48.008,107.141 -107.141,107.141c-59.133,0 -107.142,-48.008 -107.142,-107.141c0,-59.133 48.009,-107.141 107.142,-107.141Zm-0,3.572c-57.162,-0 -103.569,46.408 -103.569,103.569c-0,57.161 46.407,103.569 103.569,103.569c57.161,0 103.569,-46.408 103.569,-103.569c-0,-57.161 -46.408,-103.569 -103.569,-103.569Z"/><path d="M116.646,87.13c64.378,0 116.645,52.267 116.645,116.646c0,64.378 -52.267,116.646 -116.645,116.646c-64.379,-0 -116.646,-52.268 -116.646,-116.646c0,-64.379 52.267,-116.646 116.646,-116.646Zm-0,3.889c-62.232,0 -112.757,50.525 -112.757,112.757c-0,62.232 50.525,112.757 112.757,112.757c62.232,-0 112.756,-50.525 112.756,-112.757c0,-62.232 -50.524,-112.757 -112.756,-112.757Z"/></g></svg>